<?xml version="1.0" encoding="utf-8"?>
<!-- Generator: Adobe Illustrator 26.0.1, SVG Export Plug-In . SVG Version: 6.00 Build 0)  -->
<svg version="1.1" id="Слой_1" xmlns="http://www.w3.org/2000/svg" xmlns:xlink="http://www.w3.org/1999/xlink" x="0px" y="0px"
	 viewBox="0 0 3200 2000" style="enable-background:new 0 0 3200 2000;" xml:space="preserve">
<style type="text/css">
	.st0{fill:#EBF3FA;}
	.st1{opacity:0.5;}
	.st2{fill:#C8DBF4;}
	.st3{fill:#D2E3FC;}
	.st4{fill:#95C0F4;}
	.st5{fill:#B7D3F3;}
	.st6{fill:#C1D9F4;}
	.st7{fill:#E4EEF9;}
	.st8{fill:#AFCDFB;}
	.st9{fill:#C0D8FB;}
	.st10{fill:#DFEBFD;}
	.st11{fill:#CDE0FB;}
	.st12{fill:#FCECDB;}
	.st13{fill:#B5453C;}
	.st14{fill:#F4D2B8;}
	.st15{fill:#2B478B;}
	.st16{fill:#699DEE;}
	.st17{fill:#568CDB;}
	.st18{fill:#7EB2FC;}
	.st19{fill:#F99746;}
	.st20{fill:#ED7D2B;}
	.st21{fill:#2E3552;}
	.st22{fill:#F4A269;}
	.st23{fill:#FFB27D;}
	.st24{fill:#C65447;}
	.st25{fill:#163560;}
	.st26{fill:#1C468A;}
	.st27{fill:#2C3A64;}
	.st28{fill:#EFDECE;}
	.st29{fill:#ED985F;}
	.st30{fill:#233862;}
	.st31{fill:#FFFFFF;}
	.st32{fill:#DD6D22;}
	.st33{fill:#EBEEF2;}
</style>
<path class="st0" d="M339.4,1763.4l905.3-4.2l241.3-0.1h79.9l241.8-0.1l1104.6-0.3c0,0,252.6-287.5-17.2-560.6
	c-279.8-283.1-415.9-52.5-501.9-451.1C2176.7-256,36.2,327.8,597.7,1181.5C799.8,1488.8,199.7,1325.5,339.4,1763.4z"/>
<g class="st1">
	<path class="st2" d="M1939.9,1759.3H698.8V686.8c0.1-47.4,38.5-85.8,85.9-85.9h1083.1c39.8,0,72,32.3,72.1,72.1V1759.3z
		 M718.3,1739.8h1202.1V673c0-29-23.5-52.5-52.6-52.6H784.7c-36.6,0-66.3,29.7-66.4,66.3V1739.8z"/>
	<rect x="708.6" y="825.8" class="st2" width="1221.6" height="21.7"/>
	<rect x="708.6" y="1000.6" class="st2" width="1221.6" height="21.7"/>
	<rect x="708.6" y="1175.4" class="st2" width="1221.6" height="21.7"/>
	<rect x="708.6" y="1350.8" class="st2" width="1221.6" height="21.7"/>
	<rect x="975" y="1237.3" class="st2" width="30.5" height="113.5"/>
	<rect x="941.5" y="1227.5" class="st2" width="26.4" height="123.4"/>
	
		<rect x="859" y="1276" transform="matrix(0.1213 -0.9926 0.9926 0.1213 -470.6796 2046.6998)" class="st3" width="123.4" height="26.4"/>
	<rect x="1827.4" y="1237.3" class="st2" width="30.5" height="113.5"/>
	<rect x="1793.8" y="1227.5" class="st2" width="26.4" height="123.4"/>
	
		<rect x="1711.4" y="1276.1" transform="matrix(0.1213 -0.9926 0.9926 0.1213 278.1513 2892.8081)" class="st3" width="123.4" height="26.4"/>
	<rect x="751.5" y="1328.6" class="st4" width="124.7" height="22.2"/>
	<rect x="736.3" y="1313.4" class="st5" width="124.7" height="15.3"/>
	<rect x="748.5" y="1298.1" class="st3" width="119.6" height="15.3"/>
	<rect x="745.7" y="1286.4" class="st2" width="108" height="11.7"/>
	<rect x="1350.2" y="1328.6" class="st3" width="124.7" height="22.2"/>
	<rect x="1335" y="1313.4" class="st5" width="124.7" height="15.3"/>
	<rect x="1347.3" y="1298.1" class="st3" width="119.6" height="15.3"/>
	<rect x="1344.4" y="1286.4" class="st2" width="108" height="11.7"/>
	<rect x="1330.9" y="1271.2" class="st5" width="124.7" height="15.3"/>
	<rect x="1343.2" y="1255.9" class="st3" width="119.6" height="15.3"/>
	<rect x="1340.3" y="1244.2" class="st2" width="108" height="11.7"/>
	<rect x="1256.8" y="1227.5" class="st6" width="21.3" height="122.9"/>
	<rect x="1518.2" y="1221.8" class="st6" width="21.3" height="128.5"/>
	<rect x="1582.6" y="1227.5" class="st6" width="21.3" height="122.9"/>
	<rect x="1229.9" y="1217.3" class="st7" width="26.9" height="133"/>
	<rect x="1608.3" y="1217.3" class="st7" width="26.9" height="133"/>
	<rect x="1203" y="1223.7" class="st5" width="26.9" height="126.7"/>
	
		<rect x="1466.4" y="1205.3" transform="matrix(0.9851 -0.1719 0.1719 0.9851 -197.5458 273.4363)" class="st5" width="26.9" height="143.8"/>
	<rect x="1176.1" y="1243.1" class="st2" width="26.9" height="107.3"/>
	<rect x="1643.5" y="1243.1" class="st2" width="26.9" height="107.3"/>
	<rect x="1149.3" y="1237.3" class="st4" width="26.9" height="113"/>
	<rect x="1118.1" y="1237.3" class="st3" width="26.9" height="113"/>
	<rect x="1674.1" y="1237.3" class="st3" width="26.9" height="113"/>
	<rect x="1086.2" y="1227.5" class="st8" width="26.9" height="122.9"/>
	<rect x="1553" y="1227.5" class="st8" width="26.9" height="122.9"/>
	<rect x="1588.6" y="712.7" class="st2" width="30.5" height="113.5"/>
	<rect x="1626.3" y="702.9" class="st2" width="26.4" height="123.4"/>
	
		<rect x="1660" y="703" transform="matrix(0.9926 -0.1213 0.1213 0.9926 -80.4322 208.7008)" class="st3" width="26.4" height="123.4"/>
	<rect x="1097.7" y="887.1" class="st2" width="30.5" height="113.5"/>
	<rect x="1135.3" y="877.2" class="st2" width="26.4" height="123.4"/>
	
		<rect x="1169.2" y="877.1" transform="matrix(0.9926 -0.1215 0.1215 0.9926 -105.3225 150.6525)" class="st3" width="26.4" height="123.4"/>
	<rect x="736.3" y="712.7" class="st2" width="30.5" height="113.5"/>
	<rect x="773.9" y="702.9" class="st2" width="26.4" height="123.4"/>
	
		<rect x="807.7" y="703" transform="matrix(0.9926 -0.1213 0.1213 0.9926 -86.7231 105.2666)" class="st3" width="26.4" height="123.4"/>
	<rect x="1717.9" y="804.1" class="st4" width="124.7" height="22.2"/>
	<rect x="1733.1" y="788.8" class="st5" width="124.7" height="15.3"/>
	<rect x="1726" y="773.5" class="st3" width="119.6" height="15.3"/>
	<rect x="1740.5" y="761.9" class="st2" width="108" height="11.7"/>
	<rect x="1119.2" y="804.1" class="st3" width="124.7" height="22.2"/>
	<rect x="1134.4" y="788.8" class="st5" width="124.7" height="15.3"/>
	<rect x="1127.3" y="773.5" class="st3" width="119.6" height="15.3"/>
	<rect x="1141.8" y="761.9" class="st2" width="108" height="11.7"/>
	<rect x="1138.5" y="746.6" class="st5" width="124.7" height="15.3"/>
	<rect x="1131.4" y="731.3" class="st3" width="119.6" height="15.3"/>
	<rect x="1145.9" y="719.7" class="st2" width="108" height="11.7"/>
	<rect x="1316.2" y="702.9" class="st6" width="21.3" height="122.9"/>
	<rect x="1054.7" y="697.2" class="st6" width="21.3" height="128.5"/>
	<rect x="990.3" y="702.9" class="st6" width="21.3" height="122.9"/>
	<rect x="1337.4" y="692.8" class="st7" width="26.9" height="133"/>
	<rect x="959" y="692.8" class="st7" width="26.9" height="133"/>
	<rect x="1364.3" y="699.1" class="st5" width="26.9" height="126.7"/>
	
		<rect x="1042.6" y="739.2" transform="matrix(0.1719 -0.9851 0.9851 0.1719 181.4296 1721.059)" class="st5" width="143.8" height="26.9"/>
	<rect x="1509.6" y="978.4" class="st3" width="124.7" height="22.2"/>
	<rect x="1524.8" y="963.1" class="st5" width="124.7" height="15.3"/>
	<rect x="1517.7" y="947.8" class="st3" width="119.6" height="15.3"/>
	<rect x="1532.2" y="936.2" class="st2" width="108" height="11.7"/>
	<rect x="1528.9" y="920.9" class="st5" width="124.7" height="15.3"/>
	<rect x="1521.8" y="905.7" class="st3" width="119.6" height="15.3"/>
	<rect x="1536.3" y="894" class="st2" width="108" height="11.7"/>
	
		<rect x="1441.8" y="915.1" transform="matrix(0.1692 -0.9856 0.9856 0.1692 342.6242 2263.5747)" class="st5" width="144.4" height="27"/>
	<rect x="1391.2" y="718.5" class="st2" width="26.9" height="107.3"/>
	<rect x="923.8" y="718.5" class="st2" width="26.9" height="107.3"/>
	<rect x="1418" y="712.7" class="st4" width="26.9" height="113"/>
	<rect x="1449.2" y="712.7" class="st3" width="26.9" height="113"/>
	<rect x="893.2" y="712.7" class="st3" width="26.9" height="113"/>
	<rect x="1409.5" y="867.6" class="st7" width="26.9" height="133"/>
	<rect x="1374.4" y="893.3" class="st2" width="26.9" height="107.3"/>
	<rect x="1343.8" y="887.5" class="st3" width="26.9" height="113"/>
	<rect x="1253.9" y="887.5" class="st3" width="26.9" height="113"/>
	<rect x="1216.4" y="887.5" class="st3" width="26.9" height="113"/>
	<rect x="793.4" y="867.6" class="st7" width="26.9" height="133"/>
	
		<rect x="828.3" y="867.5" transform="matrix(0.9926 -0.1215 0.1215 0.9926 -107.2672 109.2129)" class="st7" width="26.9" height="133"/>
	<rect x="758.2" y="893.3" class="st2" width="26.9" height="107.3"/>
	<rect x="727.6" y="887.5" class="st3" width="26.9" height="113"/>
	<rect x="1481.1" y="702.9" class="st8" width="26.9" height="122.9"/>
	<rect x="1194.7" y="1052.5" class="st6" width="21.3" height="122.9"/>
	<rect x="1215.9" y="1042.4" class="st7" width="26.9" height="133"/>
	<rect x="1242.8" y="1048.7" class="st5" width="26.9" height="126.7"/>
	<rect x="1269.7" y="1068.1" class="st2" width="26.9" height="107.3"/>
	<rect x="1296.5" y="1062.4" class="st4" width="26.9" height="113"/>
	<rect x="1327.7" y="1062.4" class="st3" width="26.9" height="113"/>
	<rect x="1359.6" y="1052.5" class="st8" width="26.9" height="122.9"/>
	<rect x="1681.2" y="877.7" class="st8" width="26.9" height="122.9"/>
	<rect x="1710.5" y="877.7" class="st8" width="26.9" height="122.9"/>
	<rect x="1014.3" y="702.9" class="st8" width="26.9" height="122.9"/>
	<rect x="1647.3" y="1153.7" class="st3" width="124.7" height="22.2"/>
	<rect x="1662.6" y="1138.5" class="st5" width="124.7" height="15.3"/>
	<rect x="1655.4" y="1123.2" class="st3" width="119.6" height="15.3"/>
	<rect x="1669.9" y="1111.5" class="st2" width="108" height="11.7"/>
	<rect x="1666.7" y="1096.3" class="st5" width="124.7" height="15.3"/>
	<rect x="1659.6" y="1081" class="st3" width="119.6" height="15.3"/>
	<rect x="1674" y="1069.3" class="st2" width="108" height="11.7"/>
	<rect x="1582.8" y="1046.9" class="st6" width="21.3" height="128.5"/>
	<rect x="1518.4" y="1052.6" class="st6" width="21.3" height="122.9"/>
	<rect x="1487.1" y="1042.4" class="st7" width="26.9" height="133"/>
	
		<rect x="1570.7" y="1088.8" transform="matrix(0.1719 -0.9851 0.9851 0.1719 274.3205 2530.9009)" class="st5" width="143.8" height="26.9"/>
	<rect x="1451.9" y="1068.2" class="st2" width="26.9" height="107.3"/>
	<rect x="1421.3" y="1062.4" class="st3" width="26.9" height="113"/>
	<rect x="1138.6" y="1042.4" class="st7" width="26.9" height="133"/>
	<rect x="1103.5" y="1068.2" class="st2" width="26.9" height="107.3"/>
	<rect x="1072.8" y="1062.4" class="st3" width="26.9" height="113"/>
	<rect x="1031" y="1042.4" class="st7" width="26.9" height="133"/>
	<rect x="995.8" y="1068.2" class="st2" width="26.9" height="107.3"/>
	<rect x="965.2" y="1062.4" class="st3" width="26.9" height="113"/>
	<rect x="1542.4" y="1052.6" class="st8" width="26.9" height="122.9"/>
</g>
<path class="st9" d="M2077,619.5h157.7c7.3,0,13.2,5.9,13.2,13.2v152.2c0,7.3-5.9,13.2-13.2,13.2H2077c-7.3,0-13.2-5.9-13.2-13.2
	V632.6C2063.9,625.4,2069.8,619.5,2077,619.5z"/>
<path class="st10" d="M2083.9,627.2h144.1c6.6,0,12,5.4,12,12v139.1c0,6.6-5.4,12-12,12h-144.1c-6.6,0-12-5.4-12-12V639.2
	C2071.9,632.6,2077.2,627.2,2083.9,627.2z"/>
<path class="st5" d="M2152.1,643.5c0-2.1,1.7-3.8,3.8-3.8s3.8,1.7,3.8,3.8s-1.7,3.8-3.8,3.8C2153.8,647.3,2152.1,645.6,2152.1,643.5
	z"/>
<path class="st5" d="M2182.9,648.9c1-1.8,3.3-2.5,5.2-1.5s2.5,3.3,1.5,5.2c-1,1.8-3.3,2.5-5.2,1.5c0,0,0,0,0,0
	C2182.5,653.1,2181.9,650.8,2182.9,648.9C2182.9,648.9,2182.9,648.9,2182.9,648.9z"/>
<path class="st5" d="M2209.2,669.8c1.8-1.1,4.1-0.6,5.3,1.1s0.6,4.1-1.1,5.3c-1.8,1.1-4.1,0.6-5.3-1.1
	C2207,673.3,2207.5,671,2209.2,669.8C2209.2,669.8,2209.2,669.8,2209.2,669.8z"/>
<path class="st5" d="M2222.3,702.2c2.1,0,3.8,1.7,3.8,3.8c0,2.1-1.7,3.8-3.8,3.8c-2.1,0-3.8-1.7-3.8-3.8c0,0,0,0,0,0
	C2218.5,704,2220.2,702.3,2222.3,702.2z"/>
<path class="st5" d="M2215.6,739.9c1.5,1.5,1.5,3.9,0,5.4c-1.5,1.5-3.9,1.5-5.4,0c-1.5-1.5-1.5-3.9,0-5.4
	C2211.7,738.4,2214.1,738.4,2215.6,739.9C2215.6,739.9,2215.6,739.9,2215.6,739.9z"/>
<circle class="st5" cx="2189" cy="766.6" r="3.8"/>
<path class="st5" d="M2152.1,776.2c0-2.1,1.7-3.8,3.8-3.8c2.1,0,3.8,1.7,3.8,3.8c0,2.1-1.7,3.8-3.8,3.8
	C2153.8,780.1,2152.1,778.4,2152.1,776.2z"/>
<path class="st5" d="M2128.8,648.9c-1-1.8-3.3-2.5-5.2-1.5s-2.5,3.3-1.5,5.2c1,1.8,3.3,2.5,5.2,1.5c0,0,0,0,0,0
	C2129.2,653.1,2129.9,650.8,2128.8,648.9C2128.8,648.9,2128.8,648.9,2128.8,648.9z"/>
<path class="st5" d="M2102.5,669.8c-1.8-1.1-4.1-0.6-5.3,1.1s-0.6,4.1,1.1,5.3c1.8,1.1,4.1,0.6,5.3-1.1
	C2104.8,673.3,2104.3,671,2102.5,669.8C2102.5,669.8,2102.5,669.8,2102.5,669.8z"/>
<path class="st5" d="M2089.4,702.2c-2.1,0-3.8,1.7-3.8,3.8c0,2.1,1.7,3.8,3.8,3.8c2.1,0,3.8-1.7,3.8-3.8c0,0,0,0,0,0
	C2093.2,704,2091.5,702.3,2089.4,702.2z"/>
<path class="st5" d="M2096.1,739.9c-1.5,1.5-1.5,3.9,0,5.4c1.5,1.5,3.9,1.5,5.4,0c1.5-1.5,1.5-3.9,0-5.4
	C2100,738.4,2097.6,738.4,2096.1,739.9C2096.1,739.9,2096.1,739.9,2096.1,739.9z"/>
<circle class="st5" cx="2122.7" cy="766.6" r="3.8"/>
<path class="st5" d="M2154.9,706.1c0-2.1,1.7-3.8,3.8-3.8c2.1,0,3.8,1.7,3.8,3.8c0,2.1-1.7,3.8-3.8,3.8c0,0,0,0,0,0
	C2156.6,709.9,2154.9,708.2,2154.9,706.1z"/>
<rect x="2158.2" y="658.4" class="st5" width="1" height="47.6"/>
<rect x="2154.8" y="694.6" transform="matrix(0.7866 -0.6174 0.6174 0.7866 33.4122 1488.9453)" class="st5" width="32.1" height="3.1"/>
<path class="st11" d="M2439,1644c0,0,174.4-165.9,223.4-127.3S2439,1644,2439,1644z"/>
<path class="st11" d="M2426.4,1675.9c0,0,324.5-145.3,401.3-68.5s-89.1,67.3-150.5,58.8S2426.4,1675.9,2426.4,1675.9z"/>
<path class="st11" d="M2412.8,1640.4c0,0,1.5-8.2,3.6-20.1c4.1-23.3,10.2-61.1,11.3-80.7c1.6-29.7,25.6-50.9,51.8-20.6
	s-56.6,113.3-56.6,113.3L2412.8,1640.4z"/>
<path class="st10" d="M2504.8,1072.3c-23.8-62.1-129.5-31.3-129.5-31.3s-61.9,119.2-83,124s33-112.2,33-112.2
	c-41.7,0.2-141.7,61.3-141.7,61.3s19.8,129.8-1.8,129.2s-11.7-115.8-11.7-115.8c-38.7,16-71.3,66.3-71.3,66.3
	c-38.9,80.6,66.5,126.4,66.5,126.4s5.9,45.1-16.8,99.8l0,0c0,0-5.4,10.2-10.1,27.2l10.9-1.1c0.6-3,1.3-5.9,2.1-8.8c1.2-4.2,0,0,0,0
	v-0.1c0.6-1.8,1.4-4.3,2.4-7.3l0,0c2.7-6.8,4.4-11.9,5.5-15.5l0,0c7.9-21.4,19.6-49.5,28.6-56.1c-1.1-1.5-2.1-3.1-2.8-4.8l2.8,4.8
	c22.7,38.1,116.5,35.3,167.3,19.4s26.7-28.2-3.6-49.2s-88.3-8.8-106.5-16.3s6.1-19.4,41-20.3s55.7,32,112.1,31.7
	s88.6-109.8,88.6-109.8c-37.4,15.9-108.7,1.6-112.8-11.5s98.6-22,114.2-27.6S2528.6,1134.5,2504.8,1072.3z"/>
<path class="st11" d="M799.8,1621.1c-48.9-59.8,43.2-148.5,43.2-148.5s155.7,6.4,172.7-12c17-18.4-132.1-31.5-132.1-31.5
	c24.2-41.8,143.5-107.3,143.5-107.3s119.2,94.8,131.2,72.8s-109.8-78.6-109.8-78.6c38.4-29.8,107.9-33.5,107.9-33.5
	c103.6,7.3,88.9,139.9,88.9,139.9s42,32,110.2,40.7l0,0c0,0,13.4,0.5,33.2,5.5l-7.4,10.3c-3.4-1.1-6.7-2.1-10-2.9h-0.1h-0.1
	c-2.1-0.4-5.1-1-8.8-1.8l0,0c-8.4-1.3-14.5-2.4-18.8-3.4l0,0c-26.2-4.4-61.2-8.9-72.9-3.6c-0.8-2-1.9-3.9-3.2-5.6l3.2,5.6
	c25.2,44.8-31.7,137.7-77,179.7s-43.9,10.6-47.4-32s42.1-93.9,45-116.7s-23.1-5.1-44,29.6s0.1,74.5-32.7,131.2
	s-161.5,25.7-161.5,25.7c37.5-28.5,64.3-108.6,53.5-120.2s-79.1,86.6-93.7,99S848.6,1680.8,799.8,1621.1z"/>
<path class="st12" d="M1207.3,1359h496.6c46,0,83.2,37.3,83.2,83.2v73.8c0,47-38.1,85.1-85.1,85h-494.7l0,0V1359L1207.3,1359z"/>
<path class="st13" d="M2219.6,1458.6v36.4c0.1,18.3-3.5,36.5-10.6,53.3c-13.6,31.5-38.9,52.7-67.8,52.7h-949.3
	c-6.3,0-11.4-6.9-11.4-15.4v-5.4c0-8.5,5.1-15.4,11.4-15.4h562.5c10.7,0.1,20.3-6.4,24.3-16.3l0.1-0.2c5.7-14.8,8.6-30.5,8.5-46.3
	v-46.3c0-8.3-0.8-16.5-2.3-24.6c0-0.1,0-0.3-0.1-0.4c-4.2-20.7-22.5-35.6-43.7-35.5h-549.3c-6.3,0-11.4-6.9-11.4-15.4v-5.4
	c0-8.5,5.1-15.4,11.4-15.4h954.1c33.6,0,62,30.5,70.8,72.2C2218.6,1440.2,2219.6,1449.3,2219.6,1458.6z"/>
<polygon class="st14" points="1207.3,1480 1277.6,1484.1 1207.3,1486.5 "/>
<polygon class="st14" points="1207.3,1518 1374.6,1522 1207.3,1524.5 "/>
<path class="st12" d="M1270.8,960.3h410.4c38.4,0,69.5,31.1,69.5,69.5c0,0,0,0,0,0v63.4c0,39.3-31.8,71.1-71.1,71.1h-408.9l0,0
	V960.3L1270.8,960.3z"/>
<path class="st8" d="M2108.7,1044.3v30.7c0.1,15.4-2.9,30.7-8.8,45c-11.2,26.6-32.2,44.4-56.1,44.4h-785.8c-5.2,0-9.4-5.8-9.4-13
	v-4.6c0-7.2,4.2-13,9.4-13H1737c2.6-4.4,4.9-9.1,6.7-13.9c4.7-12.5,7.1-25.7,7-39v-39c0-7-0.6-13.9-1.9-20.8
	c-2-10.7-5.7-20.9-11.1-30.3h-479.8c-5.2,0-9.4-5.8-9.4-13v-4.6c0-7.2,4.2-13,9.4-13h789.8c27.8,0,51.3,25.7,58.6,60.8
	C2107.9,1028.7,2108.7,1036.5,2108.7,1044.3z"/>
<polygon class="st14" points="1270.8,1062.3 1329,1065.8 1270.8,1067.8 "/>
<polygon class="st14" points="1270.8,1094.3 1409.2,1097.8 1270.8,1099.8 "/>
<path class="st15" d="M1885.2,1759.3h-564.2c-43.4,0-78.6-35.2-78.6-78.6v-6.3c0-40.8,33-73.8,73.8-73.8l0,0h569l0,0L1885.2,1759.3
	L1885.2,1759.3z"/>
<path class="st12" d="M2498.3,1759.3h-642.6c-42.4,0-76.8-34.4-76.8-76.8v-6.9c0-41.4,33.6-75,75-75h644.3l0,0V1759.3L2498.3,1759.3
	z"/>
<path class="st15" d="M2520.2,1759.3h-784c-6.3,0-11.4-5.1-11.4-11.4v-0.9c0-6.3,5.1-11.4,11.4-11.4h784c6.3,0,11.4,5.1,11.4,11.4
	v0.9C2531.6,1754.2,2526.5,1759.3,2520.2,1759.3z"/>
<path class="st15" d="M2520.2,1624.3h-784c-6.3,0-11.4-5.1-11.4-11.4v-0.9c0-6.3,5.1-11.4,11.4-11.4h784c6.3,0,11.4,5.1,11.4,11.4
	v0.9C2531.6,1619.2,2526.5,1624.3,2520.2,1624.3z"/>
<polygon class="st14" points="2498.3,1679.9 2411.1,1682.6 2498.3,1684.2 "/>
<polygon class="st14" points="2498.3,1643.4 2290.8,1646.1 2498.3,1647.7 "/>
<path class="st16" d="M2292.9,1645.6c0,0,8.9,6.8,11.8,18c0.5,2,0.9,4.1,0.9,6.3c0.5,14.9,0,48.6,0,48.6l26.2-16.8l26.2,16.8v-45.7
	c0-8.6-2.2-17-6.4-22.5c-2-2.7-4.5-4.7-7.2-4.7L2292.9,1645.6z"/>
<path class="st17" d="M2292.9,1645.6c0,0,8.9,6.8,11.8,18l52.6,0.7c0,0-2.1-16-12.9-18.7L2292.9,1645.6z"/>
<path class="st12" d="M2323.9,1359h-636.2c-47,0-85.1-38.1-85.1-85.1v0v-26.3c0-46,37.3-83.2,83.2-83.2h638.1l0,0V1359L2323.9,1359z
	"/>
<path class="st18" d="M1602.2,1239.8v41.9c0.1,6.3,1.6,12.5,4.4,18.1c5,10,13.9,18.2,25,23.6c9.1,4.2,19,6.4,29,6.4h682.2
	c8,0,14.5,5.4,14.5,12.1v4.9c0,6.7-6.5,12.1-14.5,12.1H1164.3c-33.8,0-63.7-14-81.8-35.5c-11.4-13.5-18.1-30-18.1-47.8v-33
	c0-12,3.2-23.7,9.3-34c15.2-26.2,47.3-44.2,84.4-44.2h1184.7c8,0,14.5,5.4,14.5,12.1v4.9c0,6.7-6.5,12.1-14.5,12.1h-684.3
	c-16.3,0-31.2,5.8-41.5,15.1c-4.4,3.9-8,8.6-10.7,13.8C1603.7,1227.9,1602.3,1233.8,1602.2,1239.8z"/>
<polygon class="st14" points="2323.9,1261.6 2236.5,1264.9 2323.9,1266.9 "/>
<polygon class="st14" points="2323.9,1216.8 2115.9,1220.1 2323.9,1222.1 "/>
<path class="st19" d="M2118,1219.5c0,0,13.7,6.2,18.3,16.3c0.8,1.8,1.3,3.7,1.4,5.7c0.8,13.5,0,44,0,44l40.5-15.3l40.4,15.3v-41.4
	c0-8-3.6-15.5-9.9-20.4c-3.2-2.6-7.1-4.1-11.2-4.2H2118z"/>
<path class="st20" d="M2118,1219.5c0,0,13.7,6.2,18.3,16.3l81.2,0.6c0,0-3.2-14.5-19.9-16.9L2118,1219.5z"/>
<path class="st21" d="M3083.6,1762.8v1.2c0.1,1.9-1.4,3.4-3.3,3.5H195.2c-1.8-0.1-3.3-1.6-3.2-3.5v-1.2c0-1.9,1.4-3.4,3.3-3.5h2885
	C3082.1,1759.4,3083.6,1760.9,3083.6,1762.8z"/>
<path class="st22" d="M1531.5,681.7c0,0,14.8,21.8,23.2,67.8c7.4,40.2,13.8,55.1,24.5,63.3s70,32.6,70,32.6l-4.4,10.4
	c0,0-87-11.8-96.7-26.4s-47-100.4-44.1-120.2S1531.5,681.7,1531.5,681.7z"/>
<path class="st23" d="M1744.4,1161.5c-0.8,8.5,11,10.6,24.7,11.2s9.5,3.5,28.3,6.9s26.2-1.7,27.6-4.3c1.2-2.2-7.5-5.8-16.8-9.7
	l-3.5-1.5c-10.5-4.6-16.3-14-24.5-22.7c-7.7-8.2-15-34.6-15-34.6l-25.5-5.4c0,0,7.2,23.7,9.6,33.8c1.5,6-0.7,12.6-2.6,17.7
	C1745.7,1155.7,1744.9,1158.6,1744.4,1161.5z"/>
<path class="st24" d="M1769.2,1172.7c13.7,0.7,9.5,3.5,28.3,6.9s26.2-1.7,27.6-4.3c1.2-2.2-7.5-5.8-16.8-9.7l-0.2,0.2
	c-9.3,2.7-19.1,2.8-28.4,0.3c-12.4-3.4-24.4-10.8-32.9-13.2c-1.2,2.7-1.9,5.6-2.3,8.6C1743.7,1170,1755.5,1172.1,1769.2,1172.7z"/>
<path class="st20" d="M1490.8,859.5c0,0,169.2-12.7,201.1,7.4s83,254.3,83,254.3s-3.2,2.5-10.2,3.3c-6.6,0.7-21-3.1-21-3.1
	s-73.4-104.8-78.6-131.2s-3.9-50-15.7-50.6s-158.6,17.8-180.8-21.3s-3.8-77.9-3.8-77.9L1490.8,859.5z"/>
<path class="st23" d="M1679.7,1188.7c-0.8,8.5,11,10.5,24.7,11.2s9.5,3.5,28.3,6.9s26.3-1.7,27.6-4.3c1.2-2.2-7.5-5.8-16.8-9.7
	l-3.5-1.5c-10.4-4.6-16.3-14-24.5-22.7c-7.7-8.2-15-34.6-15-34.6l-25.5-5.4c0,0,7.2,23.7,9.6,33.8c1.5,6-0.7,12.6-2.6,17.7
	C1680.9,1182.9,1680.1,1185.7,1679.7,1188.7z"/>
<path class="st24" d="M1704.4,1199.9c13.7,0.7,9.5,3.5,28.3,6.9s26.3-1.7,27.6-4.3c1.2-2.2-7.5-5.8-16.8-9.7l-0.1,0.2
	c-9.3,2.7-19.1,2.8-28.4,0.3c-12.4-3.4-24.4-10.8-32.9-13.2c-1.2,2.7-1.9,5.6-2.3,8.6C1678.9,1197.2,1690.7,1199.2,1704.4,1199.9z"
	/>
<path class="st19" d="M1457.7,870c0,0,150.3,7.1,181.4,28.5s73,257.4,73,257.4s-3.2,2.4-10.3,2.9c-6.6,0.4-20.8-4-20.8-4
	s-69.3-107.6-73.4-134.2s-2-50.1-13.7-51.2s-159.2,11.7-179.9-28.3S1457.7,870,1457.7,870z"/>
<path class="st25" d="M1525,547.1c-5.8-5.6-13.7-8-19.4-9.2c1.5-0.7,3.2-1,4.8-0.9c-3.4-1.4-12.1,0-12.1,0
	c-43.9-31.2-69.9,38.5-73.2,55.4s-9.2,41.1-29.9,62.1c-53,53.8,22.7,116,22.7,116c0.3,0.3,38-80.3,75.8-93.3
	c10.9-9.6,18.9-29.4,19.6-30.9c-5.5,15.9-10.7,24.3-14.4,28.8C1532.9,656.9,1540.2,561.8,1525,547.1z"/>
<path class="st23" d="M1451.3,656.6c9.3-0.8,18.7-0.8,28,0c8.3,0.9,16.5,2.9,24.3,6.1c13.2,5.5,11.9,29-16,24.7
	S1449.4,663.5,1451.3,656.6z"/>
<path class="st23" d="M1502.5,673.7c0.2,0.1,4,20.2-14.2,19.4c-12-0.5-37.7-15-35.4-25.2c1.1-4.9,10.1-17.5,11.9-46.3l2.2,0.6
	l36.6,9.8c0,0-1.6,11.6-2.4,22.6C1500.4,663.8,1500.4,672.5,1502.5,673.7z"/>
<path class="st22" d="M1503.5,631.9c0,0-1.6,11.6-2.4,22.6c-20.7-2-30.4-21.6-34.2-32.4L1503.5,631.9z"/>
<path class="st25" d="M1463.4,615.7c0,0-6.3-19.4-5.2-34.3c0.8-10.7,15.7-47,52.2-31.9c7.4,3,14,7.6,19.3,13.5
	c6.8,7.7,15.6,22.7-6.1,52.2l-6.3,10.2L1463.4,615.7z"/>
<path class="st23" d="M1504.4,648.8c0,0-47.8-11.4-40.3-41.1s6.5-51.2,37.4-45.1s33.9,18.9,33.8,29.4S1517.1,651,1504.4,648.8z"/>
<path class="st25" d="M1523.4,567.4c0,0-22,31.5-43.3,31.5s-28.7-7.6-28.7-7.6c12.1-6.1,21.7-16.3,27.1-28.7
	C1478.6,562.5,1517.8,548.3,1523.4,567.4z"/>
<path class="st25" d="M1519.5,569.4c0,0,7.7,10.3,8.2,18.4s-2.5,24,2.2,24.6c0,0,15.9-21.2,8.3-37.4
	C1530.1,557.9,1519.5,569.4,1519.5,569.4z"/>
<path class="st26" d="M1558.9,862c-4,4.8-16.4,6.2-29.7,8.4c-10.4,1.7-21.4,3.9-29.2,8.5c-17.7,10.4-75.6,45.5-92.5,43.9
	c-6.6-0.6-5.3-13.2-1.4-29.8c6.3-26.3,19.4-62.8,19.4-78.7c0-8.7,2.9-29.2,6.7-52.6c0.3-1.9,0.6-3.8,1-5.7
	c7.6-45.6,18.2-99.4,18.2-99.4s11.8,25.7,34.7,25.7s17.6-19.6,17.6-19.6s20.9,2.5,25.9,7.8s17.5,28.3,20,34.6c0,0,0.5,8-19.3,11.8
	c0,0,4.8,21.7,5.4,36.1c0.4,10.7-7.3,44.1-9.5,64.9c-0.8,7.4-0.9,13.1,0.3,15.8c1.5,3.4,6.5,6.7,12.1,10
	C1549.7,850.1,1563.6,856.4,1558.9,862z"/>
<path class="st27" d="M1538.5,843.6c12.7,21.6-34.4,28.2-42.2,32.7c-17.7,10.4-71.9,48.1-88.8,46.5c-6.6-0.6-5.3-13.2-1.4-29.8
	c6.3-26.3,19.4-62.8,19.4-78.7c0-8.7,2.9-29.2,6.7-52.6l20.4-19.6c0,0,21.9,56.5,42.7,65.8c9.9,4.3,20.2,7.6,30.7,10
	c-0.8,7.4-0.9,13.1,0.3,15.8C1527.9,837,1532.9,840.3,1538.5,843.6z"/>
<path class="st23" d="M1445.1,673.5c0,0-17.5-10.6-34.3,9.5s12,163.9,37,171.2c27.8,8.2,111.1,7.8,111.1,7.8l-3.5-10.1
	c0,0-86.6-27.9-90.1-32.5S1453.9,675.8,1445.1,673.5z"/>
<path class="st26" d="M1451.3,656.6c0,0-35.8,3.2-46.3,15s-13.4,43.8-13.4,43.8s31.6,25.5,69.6,15.6L1451.3,656.6z"/>
<path class="st25" d="M1673.8,810.3l3.4-31.4l-44.5,58.6c0,0,18.6,9.3,19.7,7.5S1673.8,810.3,1673.8,810.3z"/>
<polygon class="st26" points="1607.3,810.3 1566.2,873 1635.2,873 1673.8,810.3 "/>
<polygon class="st28" points="1673.8,810.3 1677.1,779.2 1653.8,808.2 "/>
<polygon class="st28" points="1568.3,869.8 1565.2,867.6 1606,806.9 1607.3,810.3 "/>
<polygon class="st12" points="1606,806.9 1671,808.7 1673.8,810.3 1607.3,810.3 "/>
<path class="st23" d="M1592.4,860.6c-1.5-0.1-3-0.1-4.4,0c5-2.3,10-4.8,10-4.8s-2.2-2.3-10.8,0.8c-0.9,0.3-1.9,0.4-2.9,0.3l12-5.4
	c-2.1-1.9-7.9-0.4-12.3,1.2c-3.2,1.2-6.7,0.6-9.4-1.4l-0.1-0.1l0.6-0.1c7-1,8.8-5,6.8-4.6s-13.6,1.3-13.6,1.3
	c-5.3-0.3-15.8,3.7-15.8,3.7l5.9,10.8c0,0,16.8,3.1,21.2,1.8c0.3-0.1,0.8-0.3,1.2-0.4l0,0l15.3-1
	C1596.2,862.7,1595.8,861,1592.4,860.6z"/>
<g id="girl_2">
	<path class="st29" d="M2185,1283c0,0,88.4,38.5,104.5,37.8s115-30.1,115-30.1l-2.5,17c0,0-76.3,43.9-103,46.4
		c-26.3,2.4-116.1-23.6-124.8-29.1S2159.8,1288.5,2185,1283z"/>
	<path class="st30" d="M2171.7,1141.3c0,0-32.6-6.2-48.9,5.7c-29.4,21.5-31,95.6-42,106.6s-37.6,6.3-40,63.4s10.6,61.9-4.8,87.4
		s6.5,51,6.5,51s-9-14.1-5.1-24.2c0,0,3.7,22.4,18,27.7s16.4,9.1,18.6,16.8c0,0,121.5-62.2,121.6-106.4s23.9-87.9,12.2-107
		c0,0,5.2,8.2,5.8,17.3c0,0,7-13.4-5.1-25.9s14.2-38.4,10.3-68.3C2216.1,1164.7,2201.7,1142.2,2171.7,1141.3z"/>
	<path class="st23" d="M2195.7,1325c-7.8,5.4-17.5,9.8-29.7,12.7c-45.8,10.6-63.4-28.1-70-54.7c4.8-2.6,10.1-4.3,15.5-4.8
		c3.3-0.4,6.8-0.7,9.7-0.8c5.1-3.9,12.8-20.1,14.5-45.1l2.2,0.6l36.1,9.9c0,0-1.6,11.5-2.5,22.3c-0.6,8.5-0.7,16.6,0.9,18.6
		c2.8,0.6,4.5,1,4.5,1l0,0C2184.4,1297.5,2190.7,1311,2195.7,1325z"/>
	<path class="st29" d="M2174,1242.8c0,0-1.7,11.5-2.5,22.3c-20.4-2-30-21.5-33.6-32.2L2174,1242.8z"/>
	<path class="st23" d="M2180.1,1253.5c0,0-48.6-2.7-46.4-32.9s-2.7-50.9,28.4-50.5s36.3,12.4,38,22.6S2192.8,1253.4,2180.1,1253.5z"
		/>
	<path class="st30" d="M2199.9,1175.9c-6.9-9.6-12.7-8-16-5.5c-25.5-16.5-44.1,3.8-44.1,3.8c-3.1,13.1-10.6,24.6-21.3,32.7
		c0,0,8.4,6.1,29.2,2.3c6.3-1.2,12.2-5.2,17.3-10.2c-6,8.4-13.1,15.9-21.2,22.4c25.1-9.5,37.4-42.7,38.6-46.2
		c2.8,2.9,8.2,9.1,9.6,14.9c1.9,7.9,9.9,20.2,14.6,19.9C2206.5,1210.1,2210.1,1190.3,2199.9,1175.9z"/>
	<path class="st31" d="M2082.2,1423.8c-4.4-22.4-18.7-112-4.4-140.8c5.1-10.3,25.3-11.3,47.4-10.4c6.9,4.4,33.1,21.2,43.9,19.1
		l0.6-0.1c5.1-1.3,7-4.8,2.8-7.9c8.2-0.6,16.5,0,24.6,1.5c7.7,1.4,28.4,12.2,28.4,12.2s-10.4,18.8-25.8,25.3
		c2.6,23.4-1.3,33.7-25.6,87.8c-20.5,45.7,2.8,86.8,2.8,86.8s-120.7,97.1-121.4,47.7C2054.8,1507.7,2087.8,1452.4,2082.2,1423.8z"/>
	<path class="st32" d="M2182.7,1602.8c6.6-0.7,12.5-4.3,16.1-9.8l1.9-2.8c13.8-20.8,19.1-84.5,50-152.4
		c7.5-16.5,34.6-19.5,41.9-38.2c0,0,18.1-60.6-34.7-62.3s-141.6,168.5-143,186.3C2113.6,1540.9,2080,1614.4,2182.7,1602.8z"/>
	<path class="st30" d="M2392.8,1601.4h-75.2c0,0-2.8-12,2.1-20.2c4.4-7.2,2.7-11.3-0.5-17.3c4,1.7,8.3,2.5,12.7,2.4
		c3.8-0.2,7.7-1.9,11.2-3.9c3.2,3.7,17.1,19.4,21.4,22.5C2369.4,1588.4,2391.3,1587.2,2392.8,1601.4z"/>
	<path class="st33" d="M2090.1,1306.4c0,0-9.8,89.1,53.7,107.8s81.5-82,30.3-89.2S2090.1,1306.4,2090.1,1306.4z"/>
	<path class="st20" d="M2294.4,1354.8c4.5,34,22.2,141.2,53.4,193.5c10.1,16.9-25.4,26.3-25.5,26.3c-4.8-1.2-12.7-8.8-16.3-12.1
		c-25.3-22.8-76.8-87.5-76.8-139.3c0-25.3-0.4-73.6,17.9-85.8C2258.5,1329.7,2292.6,1341.3,2294.4,1354.8z"/>
	<path class="st19" d="M2137.9,1601.4c0,0,2.8-3.9,7.6-11.2c5.8-8.8,12.2-26,20-48.1c8.2-23.2,17.8-51.8,29.9-81.5
		c3.7-9.2,7.7-18.4,11.9-27.7c7.5-16.5,28.2-14.2,35.6-32.9c0,0,28.8-64.8-24.1-66.6s-153.3,173.2-159.1,190.2
		C2053.4,1542.1,2022.6,1619.2,2137.9,1601.4z"/>
	<path class="st15" d="M2337.6,1601.4h-75.2c0,0-2.8-12,2.1-20.2c4.4-7.2,2.7-11.3-0.5-17.3c4,1.7,8.3,2.6,12.7,2.4
		c3.7-0.2,7.7-1.9,11.2-3.9c3.2,3.7,17.1,19.4,21.4,22.5C2314.2,1588.4,2336.1,1587.2,2337.6,1601.4z"/>
	<path class="st20" d="M2165.5,1542.1c8.2-23.2,17.8-51.8,29.9-81.5c-3.2-22.5-10-42.2-21.4-50.1
		C2174,1410.4,2146.2,1496.6,2165.5,1542.1z"/>
	<path class="st19" d="M2250.5,1352.3c4.5,34,10.9,143.6,42.1,195.9c10.1,16.9-25.4,26.3-25.6,26.3c-4.7-1.2-12.7-8.8-16.3-12.1
		c-25.3-22.8-76.8-87.5-76.8-139.3c0-25.3,29.7-71.5,48-83.8C2233.3,1331.7,2248.7,1338.9,2250.5,1352.3z"/>
	<path class="st31" d="M2189.2,1236.2c0,0-4.6-1.8-17.5-0.8c0,0,0.7,5,10.2,5.5C2187.3,1241.2,2189.2,1236.2,2189.2,1236.2z"/>
	<polygon class="st25" points="2413.8,1255.1 2398.2,1226.9 2364.4,1321.1 2384.4,1342.5 	"/>
	<polygon class="st26" points="2332.4,1271.6 2301,1361.2 2384.4,1342.5 2413.8,1255.1 	"/>
	<polygon class="st28" points="2302.6,1356.6 2301.2,1354.1 2330.9,1269.3 2332.4,1271.6 	"/>
	<polygon class="st12" points="2330.9,1269.3 2409.9,1253.9 2413.8,1255.1 2332.4,1271.6 	"/>
	<polygon class="st28" points="2413.8,1255.1 2396.9,1228.3 2386.2,1258.5 2409.9,1253.9 	"/>
	<path class="st23" d="M2356.4,1284.5c-2.7-0.5-8.5-2.7-14.4-4.3c1.8-1.4,3.7-3,4.3-4.8c1-3.3,1.8-4.4-1.8-3.3s-15.8,6.7-15.8,6.7
		l0,0c-7,2-13.4,11.9-13.4,11.9s-86.2,30.3-96.6,30.8c-16,0.8-122.8-38.5-122.8-38.5c-25.2,5.6-19.5,36.5-10.9,42s85.5,33.4,131,34
		c23.1,0.3,107-53.7,107-53.7s9.8-4.5,17.5-3.1s25.6,0,29.4-6.3S2361,1285.4,2356.4,1284.5z"/>
	<path class="st31" d="M2151,1302.4c0,0-9.6,30.2-42.4,37.1c0,0-54.2-16.7-27.2-53.6C2081.5,1285.9,2108.1,1266.1,2151,1302.4z"/>
	<path class="st23" d="M2412.4,1286.8L2412.4,1286.8c0-0.8-0.1-1.7-0.3-2.4c0,0-7.7-12.2-10.2-12.7c-7.7-1.5-7.7,8.6-6.1,15.2
		c1.2,4.2,3.3,8.1,6.4,11.3l0,0l-0.3,9.6C2414.9,1300.5,2412.4,1286.8,2412.4,1286.8z"/>
</g>
<path class="st19" d="M1730,1435.7c0,0-13.7,8.4-18.3,22.2c-0.8,2.5-1.3,5.1-1.4,7.7c-0.8,18.3,0,59.8,0,59.8l-40.5-20.7l-40.4,20.7
	v-56.2c0-10.6,3.5-21,9.9-27.7c3.1-3.3,6.9-5.8,11.2-5.8H1730z"/>
<path class="st20" d="M1730,1435.7c0,0-13.7,8.4-18.3,22.2l-81.2,0.8c0,0,3.2-19.7,20-23L1730,1435.7z"/>
<path class="st19" d="M931.9,1167.6c0,0,8.6,37.4,33.7,37.4c21.5,0,51-48.6,51-48.6L931.9,1167.6z"/>
<path class="st15" d="M1218.7,1722.8l-14.4,7.6c0,0-77.9-82.6-96.6-161.8c-3.3-14.2-4.7-28.1-3.3-41.3c0,0-1.1-3.6-3.1-9.9
	c-0.1-0.3-0.2-0.6-0.3-0.8c-0.9-2.8-1.9-6.1-3.1-9.8c-3.8-12-8.9-28.4-14.8-47c-13.6-42.9-44.6-139.8-57.8-180l95.2-34.4
	c0,0,10.8,24.7,26.3,91.7c2.4,8.8,4.8,18.4,7,29c2.5,11.9,4.9,25,6.9,39.1c3.7,26.6,5.6,53.4,5.7,80.3c0.1,12-0.3,24.4-1,37.3
	c-0.5,9.4,0.9,22,3.5,36.2C1181.1,1623.9,1218.7,1722.8,1218.7,1722.8z"/>
<path class="st30" d="M1270.8,1759.3h-77c0,0-2.8-12.3,2.2-20.6c4.5-7.4,2.8-11.6-0.6-17.7c4.1,1.8,8.5,2.6,13,2.4
	c3.8-0.2,7.9-2,11.4-4c3.3,3.8,17.5,19.9,21.9,23C1246.8,1746,1269.3,1744.7,1270.8,1759.3z"/>
<path class="st30" d="M1160.9,1405l-59.8,111.5c-0.9-2.8-1.9-6.1-3.1-9.8c-3.8-12-8.9-28.4-14.8-47c-13.6-42.9-44.6-139.8-57.8-180
	l95.2-34.4c0,0,10.8,24.7,26.3,91.7c2.4,8.8,4.8,18.4,7,29C1156.5,1377.8,1158.9,1390.9,1160.9,1405z"/>
<path class="st30" d="M1023.8,1735.2c0,0-5.3,13.1-0.3,24.1h41.9c0,0,0.9-9.9-14.3-21.5C1039.6,1729.1,1023.8,1735.2,1023.8,1735.2z
	"/>
<path class="st27" d="M1069.4,884c0-2.1,1.1-24.6,35.2-26.5c0,0-16.8,2.4-19.5,9.9c0,0,11.2-9.4,20.6-6.7s15.3,18.9,15.4,24.3
	s-4.6,22.8-10.4,24.4c-2.3,0.5-4.8,0.6-7.2,0.2c1.8,2.6,3.3,5.3,4.8,8.1c14.3,27.7,2,60.2-9.7,57.5c-7.4-1.8-12,11.2-12,11.2
	l-71.7-61.6C1015.1,924.6,1040.2,869.3,1069.4,884z"/>
<path class="st23" d="M1024.4,1071.3c7.9,5.5,17.9,10,30.4,12.9c46.9,10.8,64.8-28.8,71.6-56c-4.9-2.7-10.3-4.4-15.9-4.9
	c-3.4-0.4-7-0.7-9.9-0.8c-5.3-4-13.1-20.5-14.8-46.2l-2.2,0.6l-37,10.1c0,0,1.7,11.8,2.5,22.8c0.6,8.7,0.7,17-0.9,19
	c-2.9,0.6-4.6,1-4.6,1l0,0C1035.8,1043.1,1029.4,1056.9,1024.4,1071.3z"/>
<path class="st29" d="M1046.6,987.1c0,0,1.7,11.7,2.5,22.8c20.9-2.1,30.7-22,34.4-33L1046.6,987.1z"/>
<path class="st23" d="M1046.2,1004.7c0,0,48.2-12.4,40-42.3s-7.5-51.6-38.6-45s-33.9,19.7-33.6,30.3S1033.4,1007.2,1046.2,1004.7z"
	/>
<path class="st27" d="M1010.8,930.8c5-11,11.1-10.6,15-8.8c22.3-21.6,45-5,45-5c9.1,20.6,27.9,28.6,27.9,28.6s-7.3,7.8-28.8,8.2
	c-6.6,0.1-13.3-2.8-19.4-6.8c7.7,7.2,16.4,13.4,25.7,18.2c-27.1-4.5-46-35.3-47.9-38.6c-2.2,3.4-6.4,10.7-6.6,16.8
	c-0.3,8.3,2.9,24.2-1.8,24.9C1019.8,968.4,1003.4,947.3,1010.8,930.8z"/>
<path class="st23" d="M1032.3,1027.5c0,0,80.9-19.7,116.1,9.4l-17.6,245.3l-158.3-38.2c0,0,4.5-15.5,34.8-56.8
	S1024.5,1085.3,1032.3,1027.5z"/>
<path class="st15" d="M1079.5,1254.9l-0.3,2.4c-0.1,0.7-0.2,1.5-0.3,2.5c-0.7,6.4-2,18.6-3.6,34.4c-4.3,41.6-11.2,108.4-15.8,161.1
	c-3.6,41.2-5.9,73.9-4.7,79.1c3.7,15.8,0,204.3,0,204.3c-13.5,6.4-33.8,0-33.8,0s-35.8-169.9-30.8-193.5c2.9-14.6,1.7-29.8-3.4-43.8
	c-27.8-129.6-24.8-201.4-19.2-235.8c1.1-7.1,2.7-14.1,4.8-21c0.5-1.8,1.2-3.5,1.9-5.2C1035.6,1223,1079.5,1254.9,1079.5,1254.9z"/>
<path class="st19" d="M1159.3,1106.8c-3.9,29.5-19.5,65.6-25.1,85.1c0,0,9.3,67.5,0.4,86c-0.7,1.8-2.1,3.3-3.8,4.3
	c-33,14.4-161.5,0.4-167-41.1c-2-15.1,49-68.1,51.9-74.5c1.2-2.7,2.5-11.3-3.4-29.2c-8.5,26.1-55.2,18.6-55.2,18.6
	c5.5-9.4,19.2-74.3,34.4-103.6c11.5-22,42.1-25.2,42.1-25.2s12.7,20.2,43.6,17.3s36.4-21.7,36.4-21.7s27.3,3.6,35.8,10.4
	C1150.9,1034.5,1164.4,1068.2,1159.3,1106.8z"/>
<path class="st20" d="M1134.2,1191.9c0,0,9.3,67.5,0.4,86c-24-12.1-55.4-38.1-45.8-78.8c13.9-59.2,70.6-92.2,70.6-92.2
	C1155.4,1136.3,1139.8,1172.5,1134.2,1191.9z"/>
<polygon class="st26" points="1033.8,1112.1 1088.9,1200.5 995.2,1200.5 942.7,1114 "/>
<polygon class="st28" points="1086.1,1196.1 1087,1193 1034.9,1109.3 1033.8,1112.1 "/>
<polygon class="st12" points="1034.9,1109.3 946.5,1111.8 942.7,1114 1033.8,1112.1 "/>
<polygon class="st25" points="942.7,1114 893.1,1087.2 950.9,1177.9 995.2,1200.5 "/>
<path class="st23" d="M1204.9,1176c-5.3,2.4-18.9,18.5-23.8,20.1c-21.9,7.3-114.9-12.2-114.9-12.2l2.9-16.3c0,0,91.3,2.4,101.4-0.3
	c1.9-0.5,11.8-15.9,15.6-18.2L1204.9,1176z"/>
<path class="st23" d="M1069.1,1167.6c0,0-11-9-18.5-6.9s-18.4,11.4-22.5,13.7s-15.1,10.2-9.5,15s23,0.7,29.9-3s17.6-2.4,17.6-2.4
	L1069.1,1167.6z"/>
<path class="st23" d="M1052.7,1160.4c0,0-13.4-1.6-17-1.5s-2.7,0.9-0.6,3.7s9,3.9,9.3,4.9S1052.7,1160.4,1052.7,1160.4z"/>
<path class="st19" d="M1113.7,1022.9c0,0,39.7,4.7,50.6,21.7c13.8,21.5,46.4,107.2,45.4,128.8c0,0-23.8,40.6-105.6,34.1
	c0,0-8.5-30,8.7-40c0,0,42-7.5,46.8-11.7l-14-58.3L1113.7,1022.9z"/>
<path class="st23" d="M955.3,1146.3c-1.2-5-12.1-1.9-15.8,1c-1.1,1-2,2.1-2.8,3.3c-0.1-0.8-0.2-1.6-0.3-2.3
	c-0.2-2.3-2.9-6.6-3.6-3.4s-1.8,16.4-1.8,16.4c-0.1,10.7,6.7,15.1,11.1,11.6S956.6,1151.3,955.3,1146.3z"/>
</svg>
