<?xml version="1.0" encoding="utf-8"?>
<!-- Generator: Adobe Illustrator 26.0.1, SVG Export Plug-In . SVG Version: 6.00 Build 0)  -->
<svg version="1.1" id="Layer_1" xmlns="http://www.w3.org/2000/svg" xmlns:xlink="http://www.w3.org/1999/xlink" x="0px" y="0px"
	 viewBox="0 0 166.2 215.7" style="enable-background:new 0 0 166.2 215.7;" xml:space="preserve">
<style type="text/css">
	.st0{fill-rule:evenodd;clip-rule:evenodd;fill:#30AAE2;}
</style>
<g id="Layer_2_00000168832857815663934630000015863778079625682052_">
	<g id="Layer_1-2">
		<path class="st0" d="M38,159.1c0,6.2,1.8,10.8,5.4,13.6c2.1,1.6,4.5,2.7,7,3.3c0.3,0.1,0.8,0.2,1.3,0.2L80.1,38.6
			c-8.8,0-24,0.1-24.9,0.2c-11.4,1.3-17.1,7.3-17.1,18V84c0,13.2-6.8,21-20.5,23.3v1.1c13.6,2.4,20.5,10.1,20.5,23.3V159.1L38,159.1
			z M63.4,186.4l-0.7,3.6c-0.8,0-5,0-5.8-0.1c-10.6-0.4-18.8-3.1-24.8-7.9c-6.4-5.2-9.5-12.5-9.5-22v-27.8c0-6.4-2-10.9-5.8-13.6
			s-9.5-4.1-16.8-4.1v-13c8-0.1,13.7-1.6,17.3-4.4s5.3-7.2,5.3-13V55.8c0-9.5,3.3-16.9,9.9-22.1c5.6-4.5,12.9-7,21.8-7.7
			c1.3-0.1,20.3-0.1,28.4-0.2L88,0l13.3,2.7C101.3,2.7,63.5,186.4,63.4,186.4z M114,39.3L85.6,177c8.7,0,24.7-0.1,25.6-0.2
			c4.8-0.6,8.7-1.9,11.5-4.2c3.6-2.8,5.3-7.3,5.3-13.6v-27.3c0-7,1.7-12.3,5.1-16c3.4-3.7,8.5-6.1,15.5-7.3v-1.1
			C134.8,104.9,128,97.1,128,84V56.8C128,47.2,123.3,41.3,114,39.3z M82.9,189.9l-5.3,25.8L64.3,213l38.6-187.2l3.6,0
			c3.4,0,6.8,0.3,10.1,0.7c6.3,0.8,12.2,3.4,17.1,7.3c6.5,5.3,9.7,12.7,9.7,22V84c0,6,1.8,10.3,5.4,13.1c3.6,2.8,9.4,4.2,17.4,4.4
			v13c-7.5,0-13.1,1.4-17,4.1c-3.9,2.7-5.8,7.3-5.8,13.6V160c0,9.4-3.1,16.7-9.4,21.9c-5.7,4.8-13.6,7.4-23.7,7.9
			C109.5,189.9,90.3,189.9,82.9,189.9z"/>
	</g>
</g>
</svg>
